<svg width="228" height="36" xmlns="http://www.w3.org/2000/svg" xmlns:xlink="http://www.w3.org/1999/xlink" viewBox="0 0 228 36"><defs><path id="a" d="M0 0h181.705v36H0z"/><path id="c" d="M0 0h36v36H0z"/></defs><g fill="none" fill-rule="evenodd"><mask id="b" fill="#fff"><use xlink:href="#a"/></mask><path d="M56.082 17.389h12.436v-6.342H56.082v6.342ZM50.18 7.347h23.818v3.7h-1.475v6.342h1.475v3.7h-1.475v10.147h-4.005V21.089H56.082v8.245c.14 1.62-.563 2.36-2.108 2.22h-3.688v-3.172h1.264c.351.07.527-.106.527-.529V21.09h-1.791v-3.7h1.791v-6.342H50.18v-3.7Zm39.626 11.522 2.951 4.017 3.689-4.017h-6.64Zm-4.953 0h-.105l-2.003 10.042c-.281 1.409-.843 2.077-1.686 2.008h-3.794v-3.065h1.37c.422.07.667-.14.738-.634l2.74-14.059h-4.742v-2.22l.948-4.017h3.478l-.738 2.855h1.581l.632-2.855h3.9l-.633 2.855h10.645c.421.141.596-.07.526-.635V7.03h3.584v4.017c0 1.55-.669 2.256-2.003 2.114H85.907l-.527 2.43h15.914v3.384l-5.902 6.765 1.58 1.69c.351.495.844.706 1.476.635h2.74v2.854H96.34c-.914-.07-1.511-.283-1.791-.634l-1.792-1.692-1.897 1.692c-.563.423-1.335.634-2.319.634h-4.32v-2.96h2.423c.562 0 1.09-.175 1.582-.528l1.897-1.691-5.27-6.871Zm24.134 9.301h14.755v-1.69h-14.755v1.69Zm0-4.544h14.755V22.04h-14.755v1.586Zm4.953-14.482V7.03h4.11v2.114h9.485v2.749h-9.484v2.642h3.056l.21-1.691h4.954l-.106 1.691h1.897v2.748H113.94l-1.475 1.797h8.115v-.951h4.531v.951h2.424v9.725c-.21 1.198-.948 1.903-2.213 2.114h-20.235v-7.505h-.948v-3.17c1.123.141 2.037-.247 2.74-1.164l1.476-1.797h-4.216v-2.642h9.801v-2.748h-9.168V9.144h9.168Zm26.242 10.676V7.876h1.16c.49.07.737-.07.737-.423v-.529h3.056v2.114c0 1.269-.492 1.869-1.475 1.797v1.586h1.37v2.854h-1.476v1.797h2.319V6.924h3.478v10.148h1.897c.35.071.526-.106.526-.529v-1.268h-1.58V12.42h1.686v-1.48h-1.686V7.876h4.953v8.88c.07 2.255-.914 3.275-2.951 3.064h-2.845v1.057h5.69v2.537l-4.531 3.7 1.37.845c.35.283.843.388 1.476.317h1.686v3.066h-2.319c-1.757.07-3.092-.283-4.004-1.057l-1.16-.951-1.897 1.268c-.632.423-1.58.669-2.845.74h-3.373v-2.96h2.635c.701 0 1.194-.106 1.475-.317l1.16-.74-3.162-2.748.105-.212h5.27l.738.635 1.897-1.586h-9.59v-2.537h5.901V19.82h-5.691Zm-9.063-10.782h4.004V6.924h3.373v2.114h1.054v2.855h-1.054v1.48h1.054v3.276h-1.054v11.627c.14 2.184-.774 3.206-2.74 3.066h-4.321v-2.96h2.95c.422 0 .633-.211.633-.634V23.73l-.738 1.797c-.422.917-1.054 1.34-1.897 1.269h-1.686v-2.643h.316c.422.071.773-.317 1.054-1.163l3.162-8.35v-2.643h-4.11v-2.96Zm43.631 20.507-1.265-3.911h4.004l.843 2.22c.07.353.317.494.739.422h2.634v2.749h-4.637c-1.265 0-2.039-.494-2.318-1.48Zm-13.174-2.114.632-1.797h4.005l-1.37 3.91c-.353 1.058-1.301 1.55-2.845 1.48h-4.005v-2.853h2.424c.49.142.877-.106 1.159-.74Zm6.218-19.45v-.95h4.004v.95h9.907v2.854h-9.907v1.269h9.907l-.527 4.228h-3.794l.105-1.48h-5.164l-4.11 2.431c-.21.142-.316.248-.316.318s.14.105.422.105H181.6v2.748h-13.701l-2.213 1.374c-.142.212-.177.354-.105.423 0 .071.14.071.421 0h11.171c.422.071.633-.105.633-.528v-.634h3.794v1.585c0 1.622-.738 2.396-2.214 2.326h-7.588v5.919H167.9v-5.92h-9.485v-2.748l2.95-1.797h-2.95V18.13l6.534-3.277h-3.162v1.163h-3.793v-3.911h9.801v-1.269h-9.801V7.982h9.801Z" fill="#161E2E" mask="url(#b)"/><g mask="url(#b)"><g transform="translate(2)"><mask id="d" fill="#fff"><use xlink:href="#c"/></mask><path d="M18 31.297c-7.344 0-13.297-5.953-13.297-13.297S10.656 4.703 18 4.703 31.297 10.656 31.297 18 25.344 31.297 18 31.297m8.713.173a5.634 5.634 0 0 1 5.87-5.22 2.046 2.046 0 0 0 1.994-1.227l.006-.015A17.89 17.89 0 0 0 36 18a17.89 17.89 0 0 0-1.417-7.008 17.932 17.932 0 0 0-3.855-5.72 17.932 17.932 0 0 0-5.72-3.855A17.89 17.89 0 0 0 18 0a17.89 17.89 0 0 0-7.008 1.417 17.921 17.921 0 0 0-5.72 3.855 17.932 17.932 0 0 0-3.855 5.72A17.89 17.89 0 0 0 0 18c0 2.428.477 4.786 1.417 7.008a17.932 17.932 0 0 0 3.855 5.72 17.924 17.924 0 0 0 5.72 3.856A17.89 17.89 0 0 0 18 36a17.89 17.89 0 0 0 7.529-1.646 2.056 2.056 0 0 0 1.189-2.036 5.707 5.707 0 0 1-.005-.848" fill="#0D3CFB" mask="url(#d)"/></g><path d="M38.289 31.862a3.972 3.972 0 1 1-7.945 0 3.972 3.972 0 0 1 7.945 0" fill="#E10602"/><path d="m22.216 19.913 3.443-1.988-3.443-1.987a2.139 2.139 0 0 1-1.07-1.852v-1.794c0-1.317 1.427-2.141 2.568-1.482l5.003 2.889a2.85 2.85 0 0 1 1.427 2.47v3.661c0 1.02-.544 1.961-1.426 2.471l-5.005 2.89c-1.14.658-2.567-.166-2.567-1.483l.001-1.942c0-.765.407-1.471 1.07-1.853m-4.433 0-3.443-1.988 3.443-1.987a2.137 2.137 0 0 0 1.069-1.853v-1.794c0-1.316-1.426-2.14-2.567-1.481l-5.003 2.889a2.85 2.85 0 0 0-1.427 2.47v3.661c0 1.02.544 1.961 1.426 2.471l5.004 2.889c1.141.659 2.568-.165 2.568-1.482l-.001-1.942c0-.765-.407-1.471-1.07-1.853" fill="#0D3CFB"/></g><path d="M194.2 17c1.456 0 2.613-.3 3.45-.86.978-.68 1.476-1.72 1.476-3.12 0-.96-.28-1.72-.798-2.32-.518-.6-1.236-1-2.173-1.16.718-.24 1.296-.62 1.735-1.14.419-.58.638-1.28.638-2.08 0-1.12-.379-2-1.137-2.64-.777-.64-1.834-.96-3.15-.96h-6.361V17h6.32Zm-.358-8.04h-4.327V4.1h4.347c.997 0 1.755.18 2.273.58.518.4.778 1 .778 1.8 0 .82-.28 1.44-.798 1.86-.518.4-1.276.62-2.273.62Zm.22 6.66h-4.547v-5.3h4.546c1.097 0 1.934.2 2.513.64.598.44.917 1.12.917 2.04 0 .92-.359 1.62-1.057 2.06-.598.36-1.376.56-2.373.56Zm11.425 1.66c1.336 0 2.433-.4 3.29-1.16.698-.64 1.157-1.44 1.396-2.44h-1.595c-.26.72-.598 1.26-1.037 1.62-.518.42-1.216.64-2.054.64-.977 0-1.755-.32-2.313-.96-.558-.64-.857-1.54-.937-2.7h8.136c-.04-1.8-.44-3.22-1.197-4.22-.837-1.12-2.094-1.68-3.749-1.68-1.495 0-2.672.54-3.55 1.62-.876 1.02-1.295 2.3-1.295 3.82 0 1.68.438 3 1.356 4 .877.96 2.074 1.46 3.55 1.46Zm3.23-6.24h-6.44c.1-1.02.418-1.82.977-2.42.558-.6 1.296-.9 2.213-.9 1.954 0 3.051 1.1 3.25 3.32Zm8.575 5.96v-1.34h-1.316c-.36 0-.618-.1-.758-.26-.16-.16-.22-.44-.22-.82V8h2.553V6.66H215V3.32l-1.576.66v2.68h-2.073V8h2.073v6.58c0 .78.16 1.36.499 1.76.359.44.977.66 1.815.66h1.555Zm5.065.28c.957 0 1.814-.22 2.572-.64.638-.36 1.177-.82 1.575-1.38V17H228v-6.64c0-1.2-.319-2.14-.917-2.82-.718-.78-1.795-1.16-3.27-1.16-1.237 0-2.214.24-2.972.72-.837.52-1.376 1.34-1.595 2.42l1.575.12c.16-.66.499-1.16 1.037-1.48.479-.32 1.097-.46 1.855-.46 1.794 0 2.692.86 2.692 2.6v.54l-2.473.04c-1.555.02-2.752.32-3.59.88-.956.6-1.415 1.48-1.415 2.66 0 .84.32 1.54.957 2.08.618.52 1.436.78 2.473.78Zm.339-1.26c-.638 0-1.157-.16-1.556-.46-.398-.32-.578-.7-.578-1.18 0-1.5 1.157-2.26 3.47-2.3l2.373-.04v.88c0 .8-.38 1.52-1.117 2.14-.758.64-1.615.96-2.592.96Z" fill="#161E2E" fill-rule="nonzero"/></g></svg>